<svg version="1" xmlns="http://www.w3.org/2000/svg" width="1130.667" height="1130.667" viewBox="0 0 848.000000 848.000000"><path d="M396.7 25.6c-.1.1-5.7.4-12.3.8-6.7.4-13.3.9-14.5 1.1-1.3.2-5.1.7-8.4 1-8.5 1-10 1.2-14.7 2.1-2.4.4-5.2.8-6.3 1-3.1.5-7.7 1.4-10.5 2-1.4.3-3.6.8-5 1.1-21.7 3.9-58.6 16.5-84.5 28.7-18.7 8.9-17.2 7.4-14.3 13.3l2.4 5 11.9-5.9c15.3-7.6 52.5-22.1 56-21.9.2 0 2.4-.7 4.7-1.5 4-1.4 17.8-5.1 22.3-6 14.9-2.9 22.8-4.4 26.5-5 2.5-.3 5.4-.8 6.5-1 2.4-.4 8.9-1.1 17.5-1.9 3.6-.3 8.3-.8 10.5-1 5.3-.6 44.7-.6 51 0 2.8.2 8.6.7 13 1 4.4.4 8.9.9 10 1.1 1.1.2 3.8.6 6 .9 16.2 2.1 42.2 7.8 57.1 12.6 3.3 1.1 6.9 2.1 8 2.4 1 .2 5.1 1.5 8.9 2.9 84.8 30.2 154.5 86.5 200.9 162.1 3.7 6 7.1 11.7 7.6 12.5 2.2 3.5 14 27.1 17 34 1.8 4.1 3.6 7.9 4 8.4 1 1 10-2.2 10-3.6 0-3.1-14.9-33.4-24.3-49.5-10.3-17.5-29.6-45.1-38.4-54.8-1-1.1-4.8-5.4-8.4-9.5-22.7-25.5-48.9-48.1-78.6-67.6-7.9-5.2-14.4-9.4-14.6-9.4-.2 0-4.4-2.3-9.3-5.1C578 60.7 533.9 43.3 506 37c-26.4-5.9-48.9-9.4-68.5-10.6-9.6-.6-40.3-1.2-40.8-.8z"/><path d="M227.9 104c0 4-.9 14.3-1.2 14.6-.1.2-4.5.5-9.7.8-29.9 1.9-34.7 2.3-43 4.2-12.3 2.7-17.7 4.8-33.5 12.5-37.1 18.2-68.1 48.2-89.4 86.4-8.5 15.2-17.3 38.5-19.4 51.5-.3 1.4-.8 4.4-1.2 6.8-.4 2.3-.9 5.4-1.1 7-.9 6.1-1.1 34.3-.2 42.7.7 7.3 3.2 21 5.3 29.5 4.9 19.7 17.6 50.2 27.5 66.3C64.9 431 75.7 446 76.9 447c.3.3 3.3 3.9 6.6 8 8.8 11.1 17.4 19.3 23.3 22.5 5.5 3 5.8 3.5 6.7 12 .3 2.7.7 6.8 1 9 .2 2.2.7 6.5 1 9.5.4 3 .8 7.1 1 9 .3 1.9.7 5.6.9 8.3.3 2.6.8 6.2 1 8 .3 1.7.8 4.8 1.1 6.7 1.9 13.2 8.7 37.5 14 49.6 4.3 10 12.2 25.7 16.7 33.2 25.7 42.7 66.2 71.3 119.2 84.3 23.4 5.7 52.2 8.3 70.6 6.5 3-.3 11.8-.8 19.5-1.1 7.7-.3 15.4-.7 17.1-.9 5-.5 14.7-1.8 16.5-2.1.9-.2 3.4-.6 5.5-.9 11.7-1.9 26.4-6.3 37-11.1 21.8-9.9 47-32.5 65.5-58.7 2.9-4.3 5.6-7.8 5.9-7.8.3 0 3.7 2.5 7.5 5.6 6.2 5 17.7 12.4 19.2 12.4.3 0 1.9.6 3.6 1.4 8.3 3.6 34.8 9.8 47.5 11.2 3.1.3 5.9.7 6.2.9.9.6 19.3 1.8 26.5 1.8 6.9 0 18.9-.9 23.6-1.8 1.3-.3 3.9-.7 5.9-1 22.6-3.4 57-16.1 82.5-30.5 8-4.5 25.7-16 31.8-20.7 6-4.6 21.8-19.9 26.6-25.7 8.7-10.7 19.8-30.8 27.1-49.1.4-1.1 1.3-3.4 2-5 .7-1.7 2.8-7.7 4.7-13.5 10.5-32.6 12.4-53.4 6.8-77-9.6-40.8-18.1-60.5-37.8-88-7.8-10.8-9.8-13.3-17.1-21-15.4-16.1-29.5-26.3-47.9-34.6-3.7-1.6-3.8-1.8-3.2-5.4.9-5.1-.8-5.8-4.7-2.1-1.8 1.7-3.8 3.1-4.3 3.1-.6 0-4.5-1.3-8.8-3-4.3-1.6-9.2-3.2-10.9-3.5-1.7-.3-3.5-.8-3.9-1.1-2.1-1.3-21.6-3.1-35.1-3.3-10.3-.1-15.7-.6-16.5-1.4-.6-.7-2.3-3.5-3.8-6.4l-2.6-5.1 4.2-7.9c5.2-9.7 7.9-13.9 11.3-17.8 1.4-1.7 4-4.9 5.7-7.3l3-4.2h-2.9c-2.3 0-4 1.3-8.3 6.2-14.3 16.3-20.7 25.9-24.1 36.7-.9 2.9-2 5.7-2.5 6.1-.4.5-3.3 1.1-6.4 1.4-3.1.4-6.5.8-7.5 1-1.1.2-4.7.7-8 1.1l-6.2.6-1.2-3.7c-2.2-6.7-13.1-30.9-14.7-32.7-1.8-1.9-6.2-3.3-13.8-4.2-26.2-3.4-58.2-14.7-63.3-22.5-5.4-8.1-4.4-8.7 51.3-28.6 14.9-5.3 28.4-10.2 30-10.9 1.7-.8 3.9-1.6 5-1.9 4.6-1.4 9.5-7.5 9.5-11.8 0-2.1-1.2-3.7-5.2-6.9-5.3-4.2-22.6-12.9-25.7-12.9-.9 0-4.1 1.8-7.1 4.1-7.5 5.6-11.7 7.6-39.4 18.9-22.6 9.1-39.3 16.7-53 24.2-4.3 2.3-7.2 3.2-11 3.2-4.8.1-17.5-1.2-18.6-1.9-.3-.2-3.9-.6-8-1s-8.4-.9-9.5-1.1c-13.5-2.6-31.7-2.2-43.3.9l-9.2 2.6-3.2-2.7c-1.7-1.4-7.4-6.9-12.7-12.2-9.6-9.4-9.7-9.6-11.5-17-5.3-21.4-11.3-34.7-18.4-40.5-3.4-2.8-6.2-2.8-6.2.1 0 .9 1.7 5 3.7 9.1 3.3 6.8 3.7 8.2 4.1 18.1l.5 10.6-3.9-2.9c-18.1-13.9-41.7-26.4-67.5-35.5-6.1-2.1-11.7-4.4-12.4-5-.7-.6-1.6-3.1-2-5.6-1.2-8-1.4-8.8-3.5-10.8l-2-2-.1 2.4zm180.8 109.4c15.9 1.8 22.6 5.3 24.2 12.8 1.2 5.4.4 28.1-1.4 40.8-.2 1.4-.9 6.1-1.5 10.5-1.8 12.5-6 31.9-7.1 33-.7.7-1 .7-.8 0 1.3-4.7-3.9-27.9-9.2-41.3-3.3-8.3-3.2-9 3.5-13.2 4.4-2.7 7.7-7.6 8.4-12.2l.5-4-7.1 3.6c-11.9 6-11.7 6.1-25.9-11.9-6.8-8.5-12.3-15.9-12.3-16.4 0-2.3 14.6-3.2 28.7-1.7zm76.3 24.1c4.7 2 13.3 6.1 19.2 9 14.1 7.2 23.5 10.9 39.7 15.6 16.3 4.6 18.1 6.1 21.6 17.1l2.3 7.6-18.5 4.6c-17.4 4.2-18.7 4.4-21 2.9-2.8-1.8-5.6-6.9-7.3-13.2-1.1-4.2-1.2-4.3-3.2-2.4-1.9 1.7-2 2.5-1.4 10.8.4 4.9.9 10.2 1.2 11.6.5 2.4-.1 3-7.3 7.1-18.5 10.8-32 23.7-45.5 43.8l-6.3 9.3-10.5 2.9c-5.8 1.5-11.6 2.8-13 2.8-1.4 0-4.6-1.5-7.1-3.3l-4.6-3.2 2.9-7c10-24 15.4-39.9 19.2-56.5 2.7-12.1 7.6-40.5 8.1-47.3.6-8.9 2.3-12.1 8.2-15.3 4.4-2.4 13.3-1.2 23.3 3.1z"/><path d="M21.5 486.9c-3.7.5-4 .9-3.9 3.6.1 3.6.9 8.4 3 17.3.8 3.7 2.4 10.5 3.5 15.2 1.1 4.7 2.4 9.6 2.9 11 .4 1.4 2.3 7.2 4 13 6 19.6 20.7 53.7 31.1 72 9.1 15.8 30.4 48.1 33.8 51 .3.3 2.4 2.7 4.6 5.5 40.7 51 99.2 93.9 161.5 118.5 14.1 5.6 39.5 14 46.9 15.5.9.2 5.9 1.3 11.1 2.5 10.1 2.3 17.9 3.9 22 4.5 21.7 3.2 28 3.9 43.5 5 8.5.6 42.6.6 47.5.1 1.9-.3 7.5-.7 12.4-1.1 4.9-.3 10.5-.8 12.5-1.1 16.9-2.5 31.3-5 40.1-7 5.8-1.4 11.4-2.7 12.4-2.9 9.5-2.2 38.6-11.7 46.1-15 1.7-.7 6.6-2.8 11-4.6 16.4-6.7 54.2-27.1 61-32.9 1.1-.9 3.8-2.8 6.1-4.1 4.4-2.6 4.6-2.8 20.3-15 10.8-8.4 23.8-19.7 32.5-28.2l5-4.8-4-4-4-4-5 4.8c-36 34.7-72.9 59.3-117.4 78.3-22.3 9.5-57 20.4-74.6 23.3-1.6.3-6.9 1.2-11.9 2.1-11.5 1.9-18.5 2.9-32.5 4.3-14.1 1.5-75.1.5-78-1.2-.3-.2-3.4-.6-7-1s-7.4-.9-8.5-1.1c-1.1-.2-3.6-.7-5.5-1-77.5-13-150.9-50.6-206.4-105.9-18.3-18.3-34.3-37.1-44.6-52.5-.8-1.2-2.7-4-4.2-6.1-1.6-2.1-2.8-4.3-2.8-4.8s-.4-1.1-.8-1.3c-3-1.1-24.7-42.2-32.8-61.9-7.7-18.7-17.9-51.1-19.9-62.9-.3-1.9-1-5.1-1.5-7-.5-1.9-1.1-5.3-1.4-7.5-1.1-7.4-1.8-9.5-2.9-9.4-.7.1-3 .5-5.2.8z"/></svg>